<svg width="256" height="243" viewBox="0 0 256 243" fill="none" xmlns="http://www.w3.org/2000/svg">
<path d="M95 175H0V0H20.75V172.5H95V175Z" fill="black"/>
<path d="M135.676 175C128.842 175 123.592 173.5 119.926 170.5C116.426 167.5 114.592 164.5 114.426 161.5L114.176 157.25V50H131.676V157.25C131.676 162.083 132.592 165.833 134.426 168.5C136.426 171 138.342 172.333 140.176 172.5L143.176 173H160.164V175H135.676ZM115.676 22C113.676 20 112.676 17.5 112.676 14.5C112.676 11.5 113.676 9 115.676 7C117.676 4.83333 120.176 3.75 123.176 3.75C126.176 3.75 128.676 4.83333 130.676 7C132.842 9 133.926 11.5 133.926 14.5C133.926 17.5 132.842 20 130.676 22C128.676 24 126.176 25 123.176 25C120.176 25 117.676 24 115.676 22Z" fill="black"/>
<path d="M241.525 58.75C238.859 56.5833 234.525 54.75 228.525 53.25C222.692 51.75 218.275 51 215.275 51C212.275 51 210.525 51 210.025 51C201.025 51.1667 194.525 53.5 190.525 58C186.525 62.3333 184.525 67.25 184.525 72.75C184.525 78.25 186.275 82.9167 189.775 86.75C193.275 90.4167 197.609 93.3333 202.775 95.5C208.109 97.5 213.775 99.8333 219.775 102.5C225.942 105.167 231.609 107.917 236.775 110.75C242.109 113.417 246.525 117.417 250.025 122.75C253.525 127.917 255.275 134.417 255.275 142.25C255.275 150.083 252.525 156.75 247.025 162.25C241.525 167.75 235.359 171.417 228.525 173.25C221.859 175.083 214.609 176 206.775 176C189.775 176 177.025 172.25 168.525 164.75L170.025 163.25C173.359 166.417 178.275 169 184.775 171C191.442 173 197.859 174 204.025 174C213.859 174 221.942 171.333 228.275 166C234.775 160.5 238.025 153.75 238.025 145.75C238.025 137.583 235.609 131.083 230.775 126.25C225.942 121.25 220.025 117.417 213.025 114.75C206.192 111.917 199.275 109.167 192.275 106.5C185.275 103.667 179.359 99.8333 174.525 95C169.692 90 167.275 84.25 167.275 77.75C167.275 71.25 168.775 66 171.775 62C174.775 57.8333 178.775 54.9167 183.775 53.25C192.275 50.4167 200.775 49 209.275 49C223.609 49 234.775 51.6667 242.775 57L241.525 58.75Z" fill="black"/>
<path d="M45.307 199.173C48.277 199.173 50.7355 199.849 52.6825 201.202C54.6625 202.522 56.131 204.535 57.088 207.241C58.078 209.947 58.573 213.379 58.573 217.537V241H55.405V218.824C55.405 213.082 54.6295 208.924 53.0785 206.35C51.5605 203.743 48.8875 202.44 45.0595 202.44C43.1785 202.44 41.2645 202.984 39.3175 204.073C37.4035 205.129 35.7865 206.862 34.4665 209.271C33.1795 211.647 32.536 214.831 32.536 218.824V241H29.368V218.824C29.368 213.082 28.3615 208.924 26.3485 206.35C24.3685 203.743 21.844 202.44 18.775 202.44C16.861 202.44 14.9635 202.951 13.0825 203.974C11.2015 204.997 9.634 206.713 8.38 209.122C7.159 211.498 6.5485 214.732 6.5485 218.824V241H3.3805V200.361H6.5485V206.944C6.8785 205.921 7.588 204.816 8.677 203.628C9.799 202.407 11.2675 201.367 13.0825 200.509C14.9305 199.618 17.059 199.173 19.468 199.173C21.976 199.173 24.055 199.8 25.705 201.054C27.388 202.275 28.675 203.71 29.566 205.36C30.457 207.01 30.9685 208.462 31.1005 209.716C31.5955 208.066 32.47 206.433 33.724 204.816C35.011 203.199 36.628 201.862 38.575 200.806C40.555 199.717 42.799 199.173 45.307 199.173Z" fill="black"/>
<path d="M90.2445 242.188C86.2845 242.188 82.77 241.231 79.701 239.317C76.632 237.403 74.223 234.829 72.474 231.595C70.725 228.361 69.8505 224.764 69.8505 220.804C69.8505 216.844 70.725 213.231 72.474 209.964C74.223 206.664 76.632 204.04 79.701 202.093C82.77 200.146 86.2845 199.173 90.2445 199.173C94.2045 199.173 97.7025 200.146 100.738 202.093C103.807 204.04 106.2 206.664 107.916 209.964C109.665 213.231 110.539 216.844 110.539 220.804C110.539 224.764 109.665 228.361 107.916 231.595C106.2 234.829 103.807 237.403 100.738 239.317C97.7025 241.231 94.2045 242.188 90.2445 242.188ZM90.2445 239.02C93.6765 239.02 96.6795 238.228 99.2535 236.644C101.827 235.027 103.824 232.849 105.243 230.11C106.662 227.338 107.371 224.236 107.371 220.804C107.371 217.372 106.662 214.27 105.243 211.498C103.824 208.693 101.827 206.466 99.2535 204.816C96.6795 203.166 93.6765 202.341 90.2445 202.341C86.8125 202.341 83.793 203.166 81.186 204.816C78.612 206.466 76.599 208.693 75.147 211.498C73.728 214.27 73.0185 217.372 73.0185 220.804C73.0185 224.236 73.728 227.338 75.147 230.11C76.599 232.849 78.612 235.027 81.186 236.644C83.793 238.228 86.8125 239.02 90.2445 239.02Z" fill="black"/>
<path d="M139.869 242.188C136.272 242.188 132.972 241.363 129.969 239.713C126.999 238.063 124.623 235.638 122.841 232.437C121.059 229.236 120.168 225.325 120.168 220.705C120.168 216.085 121.059 212.175 122.841 208.974C124.623 205.773 126.999 203.347 129.969 201.697C132.972 200.014 136.272 199.173 139.869 199.173C143.169 199.173 146.073 199.8 148.581 201.054C151.089 202.275 153.069 203.694 154.521 205.311C155.973 206.928 156.749 208.297 156.848 209.419V173H160.164V241H156.996V231.991C156.897 232.981 156.122 234.285 154.67 235.902C153.218 237.519 151.221 238.971 148.68 240.258C146.139 241.545 143.202 242.188 139.869 242.188ZM139.572 239.02C142.707 239.02 145.578 238.278 148.185 236.793C150.825 235.308 152.921 233.196 154.472 230.457C156.056 227.718 156.848 224.467 156.848 220.705C156.848 216.943 156.056 213.693 154.472 210.954C152.921 208.215 150.825 206.103 148.185 204.618C145.578 203.1 142.707 202.341 139.572 202.341C136.767 202.341 134.127 203.083 131.652 204.568C129.21 206.02 127.23 208.116 125.712 210.855C124.194 213.594 123.435 216.877 123.435 220.705C123.435 224.533 124.194 227.817 125.712 230.556C127.23 233.295 129.21 235.39 131.652 236.842C134.127 238.294 136.767 239.02 139.572 239.02Z" fill="black"/>
<path d="M204.035 241V231.991C203.837 232.915 203.061 234.202 201.708 235.852C200.388 237.469 198.54 238.938 196.164 240.258C193.788 241.545 190.967 242.188 187.7 242.188C184.103 242.188 180.737 241.363 177.602 239.713C174.5 238.063 171.992 235.638 170.078 232.437C168.164 229.236 167.207 225.325 167.207 220.705C167.207 216.085 168.164 212.175 170.078 208.974C171.992 205.773 174.5 203.347 177.602 201.697C180.737 200.014 184.103 199.173 187.7 199.173C190.967 199.173 193.788 199.816 196.164 201.103C198.573 202.357 200.454 203.793 201.807 205.41C203.193 207.027 203.936 208.363 204.035 209.419V200.361H207.104V241H204.035ZM170.375 220.705C170.375 224.533 171.2 227.817 172.85 230.556C174.5 233.295 176.628 235.39 179.235 236.842C181.842 238.294 184.565 239.02 187.403 239.02C190.538 239.02 193.343 238.278 195.818 236.793C198.293 235.308 200.24 233.196 201.659 230.457C203.111 227.718 203.837 224.467 203.837 220.705C203.837 216.943 203.111 213.693 201.659 210.954C200.24 208.215 198.293 206.103 195.818 204.618C193.343 203.1 190.538 202.341 187.403 202.341C184.565 202.341 181.842 203.083 179.235 204.568C176.628 206.02 174.5 208.116 172.85 210.855C171.2 213.594 170.375 216.877 170.375 220.705Z" fill="black"/>
<path d="M232.983 199.173C234.666 199.173 236.267 199.387 237.785 199.816C239.303 200.212 240.656 200.724 241.844 201.351C243.032 201.945 243.956 202.522 244.616 203.083L242.487 205.657C241.761 204.964 240.54 204.238 238.824 203.479C237.108 202.72 235.161 202.341 232.983 202.341C230.079 202.341 227.588 202.968 225.509 204.222C223.463 205.476 222.44 207.274 222.44 209.617C222.44 211.894 223.463 213.709 225.509 215.062C227.588 216.382 230.261 217.471 233.528 218.329C235.97 218.956 238.131 219.732 240.012 220.656C241.926 221.547 243.428 222.751 244.517 224.269C245.606 225.754 246.15 227.734 246.15 230.209C246.15 232.189 245.754 233.938 244.962 235.456C244.17 236.941 243.065 238.179 241.646 239.169C240.26 240.159 238.643 240.901 236.795 241.396C234.947 241.924 232.967 242.188 230.855 242.188C228.842 242.188 226.944 241.941 225.162 241.446C223.413 240.984 221.879 240.406 220.559 239.713C219.239 239.02 218.216 238.36 217.49 237.733L219.767 234.813C220.625 235.737 222.044 236.677 224.024 237.634C226.004 238.558 228.363 239.02 231.102 239.02C234.435 239.02 237.207 238.212 239.418 236.595C241.629 234.945 242.735 232.816 242.735 230.209C242.735 228.262 242.207 226.711 241.151 225.556C240.095 224.401 238.725 223.494 237.042 222.834C235.359 222.141 233.594 221.563 231.746 221.101C229.964 220.639 228.297 220.095 226.746 219.468C225.228 218.841 223.892 218.082 222.737 217.191C221.582 216.267 220.674 215.178 220.014 213.924C219.387 212.67 219.074 211.218 219.074 209.568C219.074 207.522 219.701 205.723 220.955 204.172C222.209 202.621 223.892 201.4 226.004 200.509C228.116 199.618 230.442 199.173 232.983 199.173Z" fill="black"/>
</svg>
